<?xml version="1.0" encoding="UTF-8" standalone="no"?>
<svg
   width="383.88928"
   height="401.54419"
   viewBox="0 0 3071.1143 3212.3535"
   version="1.1"
   id="svg8"
   sodipodi:docname="task.svg"
   inkscape:version="1.2.2 (b0a8486541, 2022-12-01)"
   xmlns:inkscape="http://www.inkscape.org/namespaces/inkscape"
   xmlns:sodipodi="http://sodipodi.sourceforge.net/DTD/sodipodi-0.dtd"
   xmlns="http://www.w3.org/2000/svg"
   xmlns:svg="http://www.w3.org/2000/svg"
   xmlns:rdf="http://www.w3.org/1999/02/22-rdf-syntax-ns#"
   xmlns:cc="http://creativecommons.org/ns#"
   xmlns:dc="http://purl.org/dc/elements/1.1/">
  <defs
     id="defs12" />
  <sodipodi:namedview
     id="namedview10"
     pagecolor="#ffffff"
     bordercolor="#666666"
     borderopacity="1.0"
     inkscape:showpageshadow="2"
     inkscape:pageopacity="0.0"
     inkscape:pagecheckerboard="0"
     inkscape:deskcolor="#d1d1d1"
     showgrid="false"
     inkscape:zoom="2.2666667"
     inkscape:cx="165.88235"
     inkscape:cy="174.2647"
     inkscape:window-width="2560"
     inkscape:window-height="1403"
     inkscape:window-x="0"
     inkscape:window-y="0"
     inkscape:window-maximized="1"
     inkscape:current-layer="svg8" />
  <title
     id="title2">Flag of Canada (Pantone colours)</title>
  <path
     style="fill:#666666;stroke:none;stroke-width:0.619947"
     d="m 1535.5572,89.59069 -205.8223,404.20524 c -10.4262,20.84401 -36.308,28.52323 -56.4152,16.73856 l -202.7226,-117.16993 126.4692,652.18394 c 3.3817,17.579 -5.239,35.2814 -21.1634,43.4588 -15.9244,8.1774 -35.3344,4.869 -47.6507,-8.1219 L 866.01468,799.42962 800.9203,952.55648 c -7.56028,17.61878 -26.48735,27.47124 -45.2561,23.55799 l -336.01113,-71.2939 115.31009,354.60953 c 6.32261,19.3045 -2.71208,40.2968 -21.07819,48.9758 L 382.45631,1369.7806 965.8261,1842.18 c 13.39574,10.8751 18.38119,29.072 12.39895,45.2561 l -71.9138,198.3829 532.53425,-93.612 c 37.078,-6.3762 70.5463,23.1724 68.814,60.7548 l -27.8976,535.014 h 111.5905 l -27.8976,-535.014 c -1.7324,-37.5824 31.7361,-67.1311 68.8141,-60.7548 l 532.5342,93.612 -71.9139,-198.3829 c -5.9822,-16.1841 -0.9968,-34.381 12.399,-45.2561 l 583.3698,-472.3994 -131.4287,-61.3747 c -18.3661,-8.679 -27.4008,-29.6713 -21.0782,-48.9758 l 115.3101,-354.60953 -336.0111,71.2939 c -18.7687,3.91325 -37.6958,-5.93921 -45.2561,-23.55799 l -65.0945,-153.12686 -262.2374,281.45578 c -12.3163,12.9909 -31.7263,16.2993 -47.6507,8.1219 -15.9244,-8.1774 -24.5451,-25.8798 -21.1634,-43.4588 l 126.4692,-652.18394 -202.7226,117.16993 c -20.1072,11.78467 -45.989,4.10545 -56.4152,-16.73856 z"
     id="path407" />
  <path
     style="font-weight:bold;font-size:550.478px;line-height:1.25;font-family:'Linux Biolinum O';-inkscape-font-specification:'Linux Biolinum O Bold';font-variant-ligatures:none;stroke-width:21.6383;fill:#999999"
     d="m 93.151547,2883.3012 v 127.233 c 0,38.9489 -2.077262,75.8205 -6.231881,103.8637 l 0.519339,1.558 c 0,0 24.927335,-1.558 43.103455,-1.558 17.65678,0 42.58411,1.558 42.58411,1.558 l 1.03859,-1.558 c -4.15453,-29.6011 -6.23179,-64.9148 -6.23179,-103.8637 v -127.233 c 0,-38.9488 2.07726,-76.3399 6.23179,-103.8637 l -0.51925,-1.5579 c 0,0 -24.92733,1.5579 -43.10345,1.5579 -17.65687,0 -42.584116,-1.5579 -42.584116,-1.5579 l -1.038678,1.5579 c 4.154619,29.6012 6.231881,64.9149 6.231881,103.8637 z"
     id="path527" />
  <path
     style="font-weight:bold;font-size:550.478px;line-height:1.25;font-family:'Linux Biolinum O';-inkscape-font-specification:'Linux Biolinum O Bold';font-variant-ligatures:none;stroke-width:21.6383;fill:#999999"
     d="m 347.61756,3092.5866 c -31.67846,0 -75.30125,-34.2751 -93.47737,-61.7989 l -13.50225,0.5193 c -2.07727,18.6955 -6.23188,47.7772 -10.38641,63.3568 l 1.03868,1.558 c 0,0 48.29656,23.3693 111.65349,23.3693 76.33975,0 124.11707,-48.8159 124.11707,-101.7864 0,-56.6057 -61.27958,-85.6875 -102.82501,-105.4217 -28.04328,-12.983 -52.97052,-25.4465 -52.97052,-63.8761 0,-25.9659 18.69545,-50.3739 47.25798,-50.3739 31.15912,0 61.79891,36.8716 75.30116,62.3182 l 15.57961,-0.5193 c 2.07726,-18.6955 5.71245,-46.7387 10.38631,-62.3183 l -1.03858,-1.5579 c 0,0 -42.58412,-23.3693 -105.94105,-23.3693 -58.68297,0 -112.17273,34.7943 -112.17273,89.8421 0,20.2533 3.63518,39.9875 16.09885,56.0863 23.88866,31.6785 63.87617,50.8933 93.99662,65.9535 24.408,12.4636 45.18072,33.2364 45.18072,54.5284 0,36.8717 -17.13754,53.4899 -48.29657,53.4899 z"
     id="path529" />
  <path
     style="font-weight:bold;font-size:550.478px;line-height:1.25;font-family:'Linux Biolinum O';-inkscape-font-specification:'Linux Biolinum O Bold';font-variant-ligatures:none;stroke-width:21.6383;fill:#999999"
     d="m 581.31067,2775.283 c -19.2147,111.1341 -46.73864,241.4831 -68.55004,340.6729 5.71255,-1.558 17.65688,-1.558 23.88866,-1.558 5.71255,0 23.36932,0 29.08187,1.558 1.55792,-54.5284 14.54093,-164.624 28.56252,-245.6376 l 1.55792,0.5192 c 37.39091,83.091 70.6273,166.182 98.67058,243.5604 h 33.23629 c 37.91025,-86.2068 79.45578,-164.1046 123.59782,-244.0796 h 1.55802 c 9.86697,82.0523 16.6181,159.4307 23.88857,245.6376 7.7898,-1.558 32.71714,-1.558 40.50685,-1.558 7.7898,0 30.12054,0 37.91025,1.558 -16.09886,-112.6922 -27.52385,-212.9206 -41.0261,-340.6729 h -46.21939 l -129.82961,241.4831 h -2.07726 c -41.0262,-82.0524 -71.14664,-157.8728 -101.78643,-241.4831 z"
     id="path531" />
  <path
     style="font-weight:bold;font-size:550.478px;line-height:1.25;font-family:'Linux Biolinum O';-inkscape-font-specification:'Linux Biolinum O Bold';font-variant-ligatures:none;stroke-width:21.6383;fill:#999999"
     d="m 1103.2255,2960.6796 c 8.8284,0 18.6955,0 29.0819,0 15.0602,17.6569 28.5624,42.5841 43.1034,62.3183 25.9659,37.3909 48.816,75.3011 54.5284,92.958 9.8671,-1.558 30.6398,-1.558 40.5069,-1.558 10.3864,0 37.9102,0 48.2966,1.558 l 1.0386,-1.558 c -26.4853,-29.6011 -80.4944,-119.9626 -113.2114,-163.066 43.6228,-11.425 79.4558,-35.3137 79.4558,-87.7648 0,-33.2363 -12.983,-56.0864 -33.7558,-70.108 -24.4079,-15.5795 -59.2023,-17.6568 -92.958,-17.6568 -12.9829,0 -75.8205,3.6352 -91.4,3.6352 -17.6569,0 -43.6228,-1.5579 -43.6228,-1.5579 l -1.0386,1.5579 c 4.1545,29.6012 6.2318,64.9149 6.2318,103.8637 v 127.233 c 0,38.9489 -2.0773,75.8205 -6.2318,103.8637 l 0.5192,1.558 c 0,0 23.8887,-1.558 42.0649,-1.558 17.6568,0 41.5455,1.558 41.5455,1.558 l 1.0386,-1.558 c -4.1546,-29.6011 -5.1932,-64.9148 -5.1932,-103.8637 z"
     id="path321" />
  <path
     style="font-weight:bold;font-size:550.478px;line-height:1.25;font-family:'Linux Biolinum O';-inkscape-font-specification:'Linux Biolinum O Bold';font-variant-ligatures:none;stroke-width:21.6383;fill:#999999"
     d="m 1149.4448,2801.7682 c 31.6785,0 56.0865,1.0386 56.0865,62.3182 0,64.9148 -23.8887,67.5114 -74.2626,67.5114 h -28.0432 v -104.383 c 0,-15.0603 9.3478,-25.4466 46.2193,-25.4466 z"
     id="path533" />
  <path
     style="font-weight:bold;font-size:550.478px;line-height:1.25;font-family:'Linux Biolinum O';-inkscape-font-specification:'Linux Biolinum O Bold';font-variant-ligatures:none;stroke-width:21.6383;fill:#999999"
     d="m 1416.3738,2775.283 c -19.2148,111.1341 -46.7387,241.4831 -68.5501,340.6729 5.7125,-1.558 17.6568,-1.558 23.8887,-1.558 5.7124,0 23.3693,0 29.0818,1.558 1.558,-54.5284 14.5409,-164.624 28.5625,-245.6376 l 1.558,0.5192 c 37.3909,83.091 70.6273,166.182 98.6705,243.5604 h 33.2364 c 37.9102,-86.2068 79.4557,-164.1046 123.5978,-244.0796 h 1.5579 c 9.8671,82.0523 16.6182,159.4307 23.8887,245.6376 7.7898,-1.558 32.717,-1.558 40.5068,-1.558 7.7897,0 30.1205,0 37.9103,1.558 -16.099,-112.6922 -27.524,-212.9206 -41.0262,-340.6729 h -46.2193 l -129.8297,241.4831 h -2.0773 c -41.0261,-82.0524 -71.1466,-157.8728 -101.7864,-241.4831 z"
     id="path535" />
  <path
     style="font-weight:bold;font-size:550.478px;line-height:1.25;font-family:'Linux Biolinum O';-inkscape-font-specification:'Linux Biolinum O Bold';font-variant-ligatures:none;stroke-width:21.6383;fill:#999999"
     d="m 2058.2501,2825.6569 c 18.6955,0 39.4682,20.7727 39.4682,52.9704 0,33.2364 -1.5579,60.241 -32.1978,91.4 l -38.4295,37.9103 c -50.8933,51.9318 -66.4728,75.8205 -66.4728,106.4603 l 0.5194,2.0773 c 50.3738,-0.5193 89.8421,-2.0773 129.3102,-2.0773 38.9489,0 51.4125,0.5193 90.3615,2.0773 -1.5581,-6.7512 -3.116,-17.6568 -3.116,-24.408 0,-6.7511 1.5579,-27.5239 3.116,-34.275 -30.1206,2.0772 -44.6614,4.6738 -96.5933,4.6738 h -42.5841 c 0,-8.309 18.6955,-34.2749 29.6011,-44.6613 l 51.9319,-50.3739 c 29.6012,-28.5625 55.0478,-48.816 55.0478,-88.2841 0,-56.0864 -54.0091,-81.5331 -115.8081,-81.5331 -37.3909,0 -83.6103,17.1375 -96.5932,28.5625 l -1.558,2.0773 10.9058,41.0262 22.8499,0.5193 c 17.1376,-30.6398 34.7943,-44.142 60.241,-44.142 z"
     id="path537" />
  <path
     style="font-weight:bold;font-size:550.478px;line-height:1.25;font-family:'Linux Biolinum O';-inkscape-font-specification:'Linux Biolinum O Bold';font-variant-ligatures:none;stroke-width:21.6383;fill:#999999"
     d="m 2340.24,3119.5911 c 51.4125,0 118.9239,-41.0261 118.9239,-164.6239 0,-122.0399 -64.3955,-157.3536 -116.3273,-157.3536 -66.9921,0 -119.4433,58.1637 -119.4433,162.0274 0,85.1683 41.0262,159.9501 116.8467,159.9501 z"
     id="path329" />
  <path
     style="font-weight:bold;font-size:550.478px;line-height:1.25;font-family:'Linux Biolinum O';-inkscape-font-specification:'Linux Biolinum O Bold';font-variant-ligatures:none;stroke-width:21.6383;fill:#999999"
     d="m 2342.8366,2820.983 c 19.7341,0 42.5841,32.1977 42.5841,123.5978 0,125.1557 -23.8887,152.6796 -44.6614,152.6796 -43.6228,0 -43.1034,-87.7648 -43.1034,-131.9069 0,-126.1944 24.408,-144.3705 45.1807,-144.3705 z"
     id="path539" />
  <path
     style="font-weight:bold;font-size:550.478px;line-height:1.25;font-family:'Linux Biolinum O';-inkscape-font-specification:'Linux Biolinum O Bold';font-variant-ligatures:none;stroke-width:21.6383;fill:#999999"
     d="m 2592.1095,2825.6569 c 18.6954,0 39.4683,20.7727 39.4683,52.9704 0,33.2364 -1.5581,60.241 -32.1978,91.4 l -38.4295,37.9103 c -50.8933,51.9318 -66.4728,75.8205 -66.4728,106.4603 l 0.5192,2.0773 c 50.3739,-0.5193 89.8421,-2.0773 129.3104,-2.0773 38.9488,0 51.4125,0.5193 90.3613,2.0773 -1.5579,-6.7512 -3.1158,-17.6568 -3.1158,-24.408 0,-6.7511 1.5579,-27.5239 3.1158,-34.275 -30.1204,2.0772 -44.6613,4.6738 -96.5932,4.6738 h -42.5841 c 0,-8.309 18.6954,-34.2749 29.6012,-44.6613 l 51.9318,-50.3739 c 29.6011,-28.5625 55.0478,-48.816 55.0478,-88.2841 0,-56.0864 -54.0092,-81.5331 -115.808,-81.5331 -37.391,0 -83.6103,17.1375 -96.5933,28.5625 l -1.5579,2.0773 10.9056,41.0262 22.8501,0.5193 c 17.1375,-30.6398 34.7943,-44.142 60.2409,-44.142 z"
     id="path541" />
  <path
     style="font-weight:bold;font-size:550.478px;line-height:1.25;font-family:'Linux Biolinum O';-inkscape-font-specification:'Linux Biolinum O Bold';font-variant-ligatures:none;stroke-width:21.6383;fill:#999999"
     d="m 2852.2879,3098.299 c -38.9489,0 -40.5068,-20.7727 -57.6443,-51.4125 l -22.85,0.5194 -11.425,41.0261 2.0773,2.5966 c 12.9829,11.4249 39.9875,29.0818 88.8034,29.0818 74.2625,0 132.9455,-35.833 132.9455,-99.1898 0,-49.8546 -43.6228,-72.1853 -82.0523,-75.8205 v -1.5579 c 37.9103,-9.8671 66.992,-35.833 66.992,-79.4558 0,-48.8159 -40.5068,-66.4728 -103.8636,-66.4728 -45.7,0 -84.1296,17.6569 -97.1126,29.0819 l -1.5579,2.0772 10.9056,41.0262 22.8501,0.5194 c 15.0602,-31.6785 24.9272,-50.8933 60.2409,-50.8933 20.2535,0 42.5841,25.4466 42.5841,52.9705 0,43.1035 -29.0818,65.9535 -82.0523,69.5887 v 20.7728 c 6.2318,-1.0387 20.7727,-1.0387 25.4466,-1.0387 29.6012,0 58.683,11.425 58.683,60.7602 0,60.241 -34.7943,75.8205 -52.9705,75.8205 z"
     id="path543" />
  <metadata
     id="metadata659">
    <rdf:RDF>
      <cc:Work
         rdf:about="">
        <dc:title>Flag of Canada (Pantone colours)</dc:title>
      </cc:Work>
    </rdf:RDF>
  </metadata>
</svg>
