<?xml version="1.0" encoding="UTF-8" standalone="no"?>
<svg
   version="1.1"
   id="svg2"
   width="682.00214"
   height="672.82239"
   viewBox="0 0 682.00214 672.82239"
   sodipodi:docname="flower.svg"
   inkscape:version="1.1.2 (0a00cf5339, 2022-02-04)"
   xmlns:inkscape="http://www.inkscape.org/namespaces/inkscape"
   xmlns:sodipodi="http://sodipodi.sourceforge.net/DTD/sodipodi-0.dtd"
   xmlns="http://www.w3.org/2000/svg"
   xmlns:svg="http://www.w3.org/2000/svg"
   xmlns:rdf="http://www.w3.org/1999/02/22-rdf-syntax-ns#"
   xmlns:cc="http://creativecommons.org/ns#"
   xmlns:dc="http://purl.org/dc/elements/1.1/">
  <metadata
     id="metadata8">
    <rdf:RDF>
      <cc:Work
         rdf:about="">
        <dc:format>image/svg+xml</dc:format>
        <dc:type
           rdf:resource="http://purl.org/dc/dcmitype/StillImage" />
      </cc:Work>
    </rdf:RDF>
  </metadata>
  <defs
     id="defs6" />
  <sodipodi:namedview
     pagecolor="#ffffff"
     bordercolor="#666666"
     borderopacity="1"
     objecttolerance="10"
     gridtolerance="10"
     guidetolerance="10"
     inkscape:pageopacity="1"
     inkscape:pageshadow="2"
     inkscape:window-width="1846"
     inkscape:window-height="1016"
     id="namedview4"
     showgrid="false"
     inkscape:zoom="0.28829793"
     inkscape:cx="825.53489"
     inkscape:cy="36.420657"
     inkscape:window-x="0"
     inkscape:window-y="0"
     inkscape:window-maximized="1"
     inkscape:current-layer="g10"
     inkscape:document-rotation="0"
     inkscape:pagecheckerboard="0"
     fit-margin-top="0"
     fit-margin-left="0"
     fit-margin-right="0"
     fit-margin-bottom="0" />
  <g
     inkscape:groupmode="layer"
     inkscape:label="Image"
     id="g10"
     transform="translate(-527.78843,-650.64575)">
    <path
       style="color:#000000;font-style:normal;font-variant:normal;font-weight:normal;font-stretch:normal;font-size:medium;line-height:normal;font-family:sans-serif;font-variant-ligatures:normal;font-variant-position:normal;font-variant-caps:normal;font-variant-numeric:normal;font-variant-alternates:normal;font-variant-east-asian:normal;font-feature-settings:normal;font-variation-settings:normal;text-indent:0;text-align:start;text-decoration:none;text-decoration-line:none;text-decoration-style:solid;text-decoration-color:#000000;letter-spacing:normal;word-spacing:normal;text-transform:none;writing-mode:lr-tb;direction:ltr;text-orientation:mixed;dominant-baseline:auto;baseline-shift:baseline;text-anchor:start;white-space:normal;shape-padding:0;shape-margin:0;inline-size:0;clip-rule:nonzero;display:inline;overflow:visible;visibility:visible;opacity:1;isolation:auto;mix-blend-mode:normal;color-interpolation:sRGB;color-interpolation-filters:linearRGB;solid-color:#000000;solid-opacity:1;vector-effect:none;fill:#4d4d4d;fill-opacity:1;fill-rule:nonzero;stroke:none;stroke-width:1;stroke-linecap:butt;stroke-linejoin:miter;stroke-miterlimit:4;stroke-dasharray:none;stroke-dashoffset:0;stroke-opacity:1;color-rendering:auto;image-rendering:auto;shape-rendering:auto;text-rendering:auto;enable-background:accumulate;stop-color:#000000;stop-opacity:1"
       d="m 667.62033,785.60898 c -11.9785,-5.62638 -22.4923,-26.08322 -24.0665,-46.82666 -2.5612,-33.74937 32.0955,-77.01279 69.14451,-86.31603 17.8035,-4.47057 34.4437,-0.67934 48.5523,11.06197 11.8064,9.82541 23.9603,29.29571 27.4358,43.9518 1.6866,7.11236 6.602,34.16821 6.602,36.33973 0,0.93975 -3.1346,1.87341 -10.25,3.05306 -12.0018,1.98973 -38.8059,8.53664 -50.25,12.27356 -11.3234,3.69749 -15.4739,5.9919 -28.5,15.75483 -12.3773,9.27664 -16.89801,11.2375 -27.98001,12.13655 -5.175,0.41983 -7.3799,0.12507 -10.6881,-1.42881 z"
       id="path939" />
    <path
       style="color:#000000;font-style:normal;font-variant:normal;font-weight:normal;font-stretch:normal;font-size:medium;line-height:normal;font-family:sans-serif;font-variant-ligatures:normal;font-variant-position:normal;font-variant-caps:normal;font-variant-numeric:normal;font-variant-alternates:normal;font-variant-east-asian:normal;font-feature-settings:normal;font-variation-settings:normal;text-indent:0;text-align:start;text-decoration:none;text-decoration-line:none;text-decoration-style:solid;text-decoration-color:#000000;letter-spacing:normal;word-spacing:normal;text-transform:none;writing-mode:lr-tb;direction:ltr;text-orientation:mixed;dominant-baseline:auto;baseline-shift:baseline;text-anchor:start;white-space:normal;shape-padding:0;shape-margin:0;inline-size:0;clip-rule:nonzero;display:inline;overflow:visible;visibility:visible;opacity:1;isolation:auto;mix-blend-mode:normal;color-interpolation:sRGB;color-interpolation-filters:linearRGB;solid-color:#000000;solid-opacity:1;vector-effect:none;fill:#333333;fill-opacity:1;fill-rule:nonzero;stroke:none;stroke-width:1;stroke-linecap:butt;stroke-linejoin:miter;stroke-miterlimit:4;stroke-dasharray:none;stroke-dashoffset:0;stroke-opacity:1;color-rendering:auto;image-rendering:auto;shape-rendering:auto;text-rendering:auto;enable-background:accumulate;stop-color:#000000;stop-opacity:1"
       d="m 907.28844,798.81774 c -27.8163,-28.07074 -54.4818,-42.23029 -90.5,-48.05593 l -5,-0.80871 0.3158,-7.48652 c 0.6234,-14.7746 4.0162,-30.26439 8.9548,-40.88268 8.3449,-17.94196 21.7361,-30.48973 39.3948,-36.9136 6.6423,-2.41635 8.6559,-2.66757 21.3346,-2.66169 12.7495,0.006 14.7145,0.25644 22,2.8049 27.9809,9.78778 45.8368,34.16715 44.2418,60.40523 -0.4792,7.88332 -2.4591,12.43304 -17.738,40.76132 -7.6364,14.15837 -11.7202,25.51285 -12.6781,35.25 -0.3382,3.4375 -0.8874,6.23098 -1.2203,6.20773 -0.333,-0.0233 -4.4304,-3.90228 -9.1054,-8.62005 z"
       id="path937" />
    <path
       style="color:#000000;font-style:normal;font-variant:normal;font-weight:normal;font-stretch:normal;font-size:medium;line-height:normal;font-family:sans-serif;font-variant-ligatures:normal;font-variant-position:normal;font-variant-caps:normal;font-variant-numeric:normal;font-variant-alternates:normal;font-variant-east-asian:normal;font-feature-settings:normal;font-variation-settings:normal;text-indent:0;text-align:start;text-decoration:none;text-decoration-line:none;text-decoration-style:solid;text-decoration-color:#000000;letter-spacing:normal;word-spacing:normal;text-transform:none;writing-mode:lr-tb;direction:ltr;text-orientation:mixed;dominant-baseline:auto;baseline-shift:baseline;text-anchor:start;white-space:normal;shape-padding:0;shape-margin:0;inline-size:0;clip-rule:nonzero;display:inline;overflow:visible;visibility:visible;opacity:1;isolation:auto;mix-blend-mode:normal;color-interpolation:sRGB;color-interpolation-filters:linearRGB;solid-color:#000000;solid-opacity:1;vector-effect:none;fill:#e6e6e6;fill-opacity:1;fill-rule:nonzero;stroke:none;stroke-width:1;stroke-linecap:butt;stroke-linejoin:miter;stroke-miterlimit:4;stroke-dasharray:none;stroke-dashoffset:0;stroke-opacity:1;color-rendering:auto;image-rendering:auto;shape-rendering:auto;text-rendering:auto;enable-background:accumulate;stop-color:#000000;stop-opacity:1"
       d="m 709.78844,868.87444 c -24.01381,-3.54446 -36.89461,-11.3441 -39.50571,-23.92171 -4.2287,-20.36931 12.783,-39.82529 53.21451,-60.86064 6.9898,-3.63662 13.1079,-6.61203 13.5957,-6.61203 0.4879,0 1.1718,5.9625 1.5199,13.25 0.7195,15.06495 3.3043,27.26036 7.6864,36.26555 1.61,3.30855 7.933,12.27558 14.051,19.92672 11.8148,14.77558 14.4426,18.38796 13.8236,19.00341 -1.9571,1.94597 -54.7869,4.36545 -64.3854,2.9487 z"
       id="path933" />
    <path
       style="color:#000000;font-style:normal;font-variant:normal;font-weight:normal;font-stretch:normal;font-size:medium;line-height:normal;font-family:sans-serif;font-variant-ligatures:normal;font-variant-position:normal;font-variant-caps:normal;font-variant-numeric:normal;font-variant-alternates:normal;font-variant-east-asian:normal;font-feature-settings:normal;font-variation-settings:normal;text-indent:0;text-align:start;text-decoration:none;text-decoration-line:none;text-decoration-style:solid;text-decoration-color:#000000;letter-spacing:normal;word-spacing:normal;text-transform:none;writing-mode:lr-tb;direction:ltr;text-orientation:mixed;dominant-baseline:auto;baseline-shift:baseline;text-anchor:start;white-space:normal;shape-padding:0;shape-margin:0;inline-size:0;clip-rule:nonzero;display:inline;overflow:visible;visibility:visible;opacity:1;isolation:auto;mix-blend-mode:normal;color-interpolation:sRGB;color-interpolation-filters:linearRGB;solid-color:#000000;solid-opacity:1;vector-effect:none;fill:#b3b3b3;fill-opacity:1;fill-rule:nonzero;stroke:none;stroke-width:1;stroke-linecap:butt;stroke-linejoin:miter;stroke-miterlimit:4;stroke-dasharray:none;stroke-dashoffset:0;stroke-opacity:1;color-rendering:auto;image-rendering:auto;shape-rendering:auto;text-rendering:auto;enable-background:accumulate;stop-color:#000000;stop-opacity:1"
       d="m 896.67064,946.2871 c -4.632,-5.03433 -5.7523,-7.83287 -7.7562,-19.37606 -1.7474,-10.06579 -4.3609,-15.25312 -11.4067,-22.63988 -9.4098,-9.86523 -25.5183,-19.04678 -59.2193,-33.75404 -21.184,-9.24477 -31.0107,-14.97553 -38.6208,-22.52296 -9.8601,-9.77903 -13.8749,-19.81261 -15.0105,-37.5141 -0.7398,-11.53099 0.4771,-16.7167 5.1315,-21.8686 9.8461,-10.89847 29.9801,-14.58425 55.6504,-10.18751 42.1717,7.22304 77.5133,31.9078 87.8697,61.37367 6.0549,17.22741 4.7092,41.41468 -4.0502,72.79636 -3.5489,12.71444 -5.2467,20.20254 -7.772,34.27726 l -0.6981,3.89117 z"
       id="path931" />
    <path
       style="color:#000000;font-style:normal;font-variant:normal;font-weight:normal;font-stretch:normal;font-size:medium;line-height:normal;font-family:sans-serif;font-variant-ligatures:normal;font-variant-position:normal;font-variant-caps:normal;font-variant-numeric:normal;font-variant-alternates:normal;font-variant-east-asian:normal;font-feature-settings:normal;font-variation-settings:normal;text-indent:0;text-align:start;text-decoration:none;text-decoration-line:none;text-decoration-style:solid;text-decoration-color:#000000;letter-spacing:normal;word-spacing:normal;text-transform:none;writing-mode:lr-tb;direction:ltr;text-orientation:mixed;dominant-baseline:auto;baseline-shift:baseline;text-anchor:start;white-space:normal;shape-padding:0;shape-margin:0;inline-size:0;clip-rule:nonzero;display:inline;overflow:visible;visibility:visible;opacity:1;isolation:auto;mix-blend-mode:normal;color-interpolation:sRGB;color-interpolation-filters:linearRGB;solid-color:#000000;solid-opacity:1;vector-effect:none;fill:#1a1a1a;fill-opacity:1;fill-rule:nonzero;stroke:none;stroke-width:1;stroke-linecap:butt;stroke-linejoin:miter;stroke-miterlimit:4;stroke-dasharray:none;stroke-dashoffset:0;stroke-opacity:1;color-rendering:auto;image-rendering:auto;shape-rendering:auto;text-rendering:auto;enable-background:accumulate;stop-color:#000000;stop-opacity:1"
       d="m 910.24714,970.20721 c 1.6367,-2.90007 4.5381,-10.04222 6.4476,-15.87144 5.7957,-17.69265 8.9063,-36.98827 12.0673,-74.85571 5.889,-70.54825 7.5628,-82.96989 14.3648,-106.60424 9.8345,-34.17158 27.2448,-53.75537 54.7181,-61.5492 6.33576,-1.79737 10.57446,-2.26286 20.94346,-2.3 12.5355,-0.0449 13.2322,0.0646 19.5,3.06574 21.35,10.22271 36.0943,34.45177 40.0397,65.79673 4.4252,35.15685 -7.9908,72.81918 -34.3717,104.26177 -16.1087,19.19948 -34.3408,33.69248 -65.16796,51.80305 -8.25,4.84677 -21.975,12.9567 -30.5,18.02206 -32.4556,19.28439 -39.6993,23.50409 -40.3481,23.50409 -0.368,0 0.6701,-2.37278 2.3068,-5.27285 z"
       id="path927" />
    <path
       style="color:#000000;font-style:normal;font-variant:normal;font-weight:normal;font-stretch:normal;font-size:medium;line-height:normal;font-family:sans-serif;font-variant-ligatures:normal;font-variant-position:normal;font-variant-caps:normal;font-variant-numeric:normal;font-variant-alternates:normal;font-variant-east-asian:normal;font-feature-settings:normal;font-variation-settings:normal;text-indent:0;text-align:start;text-decoration:none;text-decoration-line:none;text-decoration-style:solid;text-decoration-color:#000000;letter-spacing:normal;word-spacing:normal;text-transform:none;writing-mode:lr-tb;direction:ltr;text-orientation:mixed;dominant-baseline:auto;baseline-shift:baseline;text-anchor:start;white-space:normal;shape-padding:0;shape-margin:0;inline-size:0;clip-rule:nonzero;display:inline;overflow:visible;visibility:visible;opacity:1;isolation:auto;mix-blend-mode:normal;color-interpolation:sRGB;color-interpolation-filters:linearRGB;solid-color:#000000;solid-opacity:1;vector-effect:none;fill:#666666;fill-opacity:1;fill-rule:nonzero;stroke:none;stroke-width:1;stroke-linecap:butt;stroke-linejoin:miter;stroke-miterlimit:4;stroke-dasharray:none;stroke-dashoffset:0;stroke-opacity:1;color-rendering:auto;image-rendering:auto;shape-rendering:auto;text-rendering:auto;enable-background:accumulate;stop-color:#000000;stop-opacity:1"
       d="m 633.78843,996.76755 c -7.2809,-1.00196 -24.2321,-5.68304 -32.2526,-8.90655 -31.2415,-12.55621 -56.8344,-33.49178 -67.7006,-55.38046 -5.6803,-11.44241 -6.0468,-14.01825 -6.0468,-42.50048 0,-29.41332 0.4374,-31.86292 8.9225,-49.97266 12.9901,-27.72464 28.8877,-44.91633 48.4457,-52.38916 11.4733,-4.38377 19.6072,-5.46853 36.706,-4.89524 22.4715,0.75342 32.8809,4.86966 39.1089,15.4649 2.5701,4.37233 2.8122,5.62444 2.7641,14.29216 -0.061,10.89839 -2.826,20.36755 -10.9997,37.66361 -11.5098,24.35544 -17.5923,50.0364 -17.6106,74.35365 -0.018,24.45661 5.1629,41.29003 18.594,60.41105 5.7774,8.22496 6.6794,10.93162 3.9873,11.9647 -1.6991,0.65201 -18.9671,0.57583 -23.9182,-0.10552 z"
       id="path921" />
    <path
       style="color:#000000;font-style:normal;font-variant:normal;font-weight:normal;font-stretch:normal;font-size:medium;line-height:normal;font-family:sans-serif;font-variant-ligatures:normal;font-variant-position:normal;font-variant-caps:normal;font-variant-numeric:normal;font-variant-alternates:normal;font-variant-east-asian:normal;font-feature-settings:normal;font-variation-settings:normal;text-indent:0;text-align:start;text-decoration:none;text-decoration-line:none;text-decoration-style:solid;text-decoration-color:#000000;letter-spacing:normal;word-spacing:normal;text-transform:none;writing-mode:lr-tb;direction:ltr;text-orientation:mixed;dominant-baseline:auto;baseline-shift:baseline;text-anchor:start;white-space:normal;shape-padding:0;shape-margin:0;inline-size:0;clip-rule:nonzero;display:inline;overflow:visible;visibility:visible;opacity:1;isolation:auto;mix-blend-mode:normal;color-interpolation:sRGB;color-interpolation-filters:linearRGB;solid-color:#000000;solid-opacity:1;vector-effect:none;fill:#f2f2f2;fill-opacity:1;fill-rule:nonzero;stroke:none;stroke-width:1;stroke-linecap:butt;stroke-linejoin:miter;stroke-miterlimit:4;stroke-dasharray:none;stroke-dashoffset:0;stroke-opacity:1;color-rendering:auto;image-rendering:auto;shape-rendering:auto;text-rendering:auto;enable-background:accumulate;stop-color:#000000;stop-opacity:1"
       d="m 742.63484,1023.4042 c -18.3396,-1.8838 -38.7227,-8.7572 -51.8933,-17.4988 -25.70371,-17.06024 -38.45991,-42.4677 -38.44931,-76.58242 0.01,-16.12316 1.773,-26.26384 7.5568,-43.34292 2.6076,-7.7 4.8217,-14.11097 4.9202,-14.2466 0.099,-0.13564 2.6017,0.47284 5.5626,1.35215 8.4032,2.49546 16.9519,6.91976 22.95661,11.88082 11.4507,9.46068 22.4294,11.25155 77,12.56042 21.175,0.50787 41.425,1.38431 45,1.94763 29.2106,4.60276 48.8243,15.52981 56.5516,31.50558 2.6205,5.41778 2.8988,6.97036 2.8677,16 -0.027,7.95222 -0.4947,11.16872 -2.2827,15.70726 -11.2298,28.50569 -45.7006,52.12618 -86.4383,59.23018 -11.1679,1.9475 -31.9327,2.6596 -43.3519,1.4867 z"
       id="path919" />
    <path
       style="color:#000000;font-style:normal;font-variant:normal;font-weight:normal;font-stretch:normal;font-size:medium;line-height:normal;font-family:sans-serif;font-variant-ligatures:normal;font-variant-position:normal;font-variant-caps:normal;font-variant-numeric:normal;font-variant-alternates:normal;font-variant-east-asian:normal;font-feature-settings:normal;font-variation-settings:normal;text-indent:0;text-align:start;text-decoration:none;text-decoration-line:none;text-decoration-style:solid;text-decoration-color:#000000;letter-spacing:normal;word-spacing:normal;text-transform:none;writing-mode:lr-tb;direction:ltr;text-orientation:mixed;dominant-baseline:auto;baseline-shift:baseline;text-anchor:start;white-space:normal;shape-padding:0;shape-margin:0;inline-size:0;clip-rule:nonzero;display:inline;overflow:visible;visibility:visible;opacity:1;isolation:auto;mix-blend-mode:normal;color-interpolation:sRGB;color-interpolation-filters:linearRGB;solid-color:#000000;solid-opacity:1;vector-effect:none;fill:#999999;fill-opacity:1;fill-rule:nonzero;stroke:none;stroke-width:1;stroke-linecap:butt;stroke-linejoin:miter;stroke-miterlimit:4;stroke-dasharray:none;stroke-dashoffset:0;stroke-opacity:1;color-rendering:auto;image-rendering:auto;shape-rendering:auto;text-rendering:auto;enable-background:accumulate;stop-color:#000000;stop-opacity:1"
       d="m 949.78844,1107.9288 c -1.1,-0.2576 -4.475,-0.9438 -7.5,-1.5248 -27.9486,-5.3678 -64.0464,-26.7537 -82.6131,-48.9435 -6.9558,-8.3132 -12.6607,-17.4008 -14.7228,-23.4526 l -1.4835,-4.354 6.6597,-1.1485 c 22.2917,-3.8443 45.4577,-16.1551 91.6597,-48.70964 31.8963,-22.47457 50.5449,-33.07304 68.99996,-39.21432 21.0566,-7.00703 39.5289,-7.6752 56.2333,-2.03406 19.7635,6.67424 34.9279,24.9492 39.3591,47.43268 1.7108,8.68043 1.1753,26.13324 -1.0714,34.91784 -13.2983,51.9959 -65.6897,85.0945 -137.82106,87.0695 -8.635,0.2364 -16.5999,0.2191 -17.6999,-0.039 z"
       id="path915" />
    <path
       style="color:#000000;font-style:normal;font-variant:normal;font-weight:normal;font-stretch:normal;font-size:medium;line-height:normal;font-family:sans-serif;font-variant-ligatures:normal;font-variant-position:normal;font-variant-caps:normal;font-variant-numeric:normal;font-variant-alternates:normal;font-variant-east-asian:normal;font-feature-settings:normal;font-variation-settings:normal;text-indent:0;text-align:start;text-decoration:none;text-decoration-line:none;text-decoration-style:solid;text-decoration-color:#000000;letter-spacing:normal;word-spacing:normal;text-transform:none;writing-mode:lr-tb;direction:ltr;text-orientation:mixed;dominant-baseline:auto;baseline-shift:baseline;text-anchor:start;white-space:normal;shape-padding:0;shape-margin:0;inline-size:0;clip-rule:nonzero;display:inline;overflow:visible;visibility:visible;opacity:1;isolation:auto;mix-blend-mode:normal;color-interpolation:sRGB;color-interpolation-filters:linearRGB;solid-color:#000000;solid-opacity:1;vector-effect:none;fill:#808080;fill-opacity:1;fill-rule:nonzero;stroke:none;stroke-width:1;stroke-linecap:butt;stroke-linejoin:miter;stroke-miterlimit:4;stroke-dasharray:none;stroke-dashoffset:0;stroke-opacity:1;color-rendering:auto;image-rendering:auto;shape-rendering:auto;text-rendering:auto;enable-background:accumulate;stop-color:#000000;stop-opacity:1"
       d="m 674.22573,1169.5047 c -25.1973,-4.5546 -53.9269,-17.3552 -72.8586,-32.4624 -27.8612,-22.2329 -43.0715,-52.4484 -41.8131,-83.0622 0.3314,-8.0605 1.0346,-12.5128 2.6318,-16.661 4.2188,-10.9572 12.9721,-18.9092 25.2363,-22.9263 6.6269,-2.1706 9.0726,-2.4111 24.3663,-2.3963 20.2087,0.019 26.6645,1.2329 59.5,11.1832 34.22611,10.3718 51.44001,15.1256 66.99011,18.4999 13.3811,2.9037 15.9879,3.1505 33.5099,3.1722 17.7903,0.022 19.5515,-0.1464 27.6624,-2.6444 8.5086,-2.6204 19.6625,-7.5765 25.0876,-11.1473 l 2.75,-1.8101 -9e-4,9.3651 c 0,27.65 -5.0632,53.0182 -14.2368,71.365 -11.5932,23.186 -26.5045,37.9917 -50.7623,50.4026 -19.4069,9.9292 -21.2763,10.3176 -51.5,10.7013 -22.22261,0.2821 -27.53471,0.053 -36.56271,-1.5793 z"
       id="path909" />
    <path
       style="color:#000000;font-style:normal;font-variant:normal;font-weight:normal;font-stretch:normal;font-size:medium;line-height:normal;font-family:sans-serif;font-variant-ligatures:normal;font-variant-position:normal;font-variant-caps:normal;font-variant-numeric:normal;font-variant-alternates:normal;font-variant-east-asian:normal;font-feature-settings:normal;font-variation-settings:normal;text-indent:0;text-align:start;text-decoration:none;text-decoration-line:none;text-decoration-style:solid;text-decoration-color:#000000;letter-spacing:normal;word-spacing:normal;text-transform:none;writing-mode:lr-tb;direction:ltr;text-orientation:mixed;dominant-baseline:auto;baseline-shift:baseline;text-anchor:start;white-space:normal;shape-padding:0;shape-margin:0;inline-size:0;clip-rule:nonzero;display:inline;overflow:visible;visibility:visible;opacity:1;isolation:auto;mix-blend-mode:normal;color-interpolation:sRGB;color-interpolation-filters:linearRGB;solid-color:#000000;solid-opacity:1;vector-effect:none;fill:#000000;fill-opacity:1;fill-rule:nonzero;stroke:none;stroke-width:1;stroke-linecap:butt;stroke-linejoin:miter;stroke-miterlimit:4;stroke-dasharray:none;stroke-dashoffset:0;stroke-opacity:1;color-rendering:auto;image-rendering:auto;shape-rendering:auto;text-rendering:auto;enable-background:accumulate;stop-color:#000000;stop-opacity:1"
       d="m 1116.2884,1274.4974 c -37.0929,-6.3439 -100.4544,-28.1708 -146.68996,-50.5321 -28.7727,-13.9156 -41.3262,-22.7304 -64.706,-45.4352 -33.6326,-32.6615 -58.5443,-70.2083 -65.0546,-98.05 -0.8359,-3.575 -1.5265,-8.2163 -1.5347,-10.3139 l -0.015,-3.8139 6.0691,4.2573 c 7.0791,4.9657 9.8199,8.2856 16.4049,19.8705 20.0625,35.2956 58.3342,75.6559 82.9831,87.5115 3.989,1.9186 8.0452,3.4884 9.0138,3.4884 2.3595,0 10.6769,-6.194 13.7795,-10.2617 1.372,-1.7988 4.5256,-7.3133 7.0079,-12.2544 8.6411,-17.2001 17.4324,-26.2074 33.24166,-34.0586 17.3902,-8.6363 34.2605,-9.246 37.5286,-1.3561 2.6383,6.3695 -2.0954,16.724 -12.865,28.1402 -8.2964,8.7946 -16.4357,13.5236 -33.10146,19.232 -7.2942,2.4985 -15.5797,5.7838 -18.4122,7.3007 -6.1066,3.2702 -14.6526,11.4175 -14.6435,13.9603 0.011,3.092 7.7568,11.0131 16.3797,16.7505 14.0021,9.3167 30.37146,15.8999 60.68626,24.4057 53.8593,15.112 60.3546,15.9797 126.1392,16.8506 49.0284,0.6491 45.2333,-0.534 34.6337,10.797 -7.2009,7.6977 -16.8747,12.9103 -26.8453,14.4651 -10.9278,1.704 -47.8956,1.1163 -60,-0.9539 z"
       id="path903" />
    <path
       style="color:#000000;font-style:normal;font-variant:normal;font-weight:normal;font-stretch:normal;font-size:medium;line-height:normal;font-family:sans-serif;font-variant-ligatures:normal;font-variant-position:normal;font-variant-caps:normal;font-variant-numeric:normal;font-variant-alternates:normal;font-variant-east-asian:normal;font-feature-settings:normal;font-variation-settings:normal;text-indent:0;text-align:start;text-decoration:none;text-decoration-line:none;text-decoration-style:solid;text-decoration-color:#000000;letter-spacing:normal;word-spacing:normal;text-transform:none;writing-mode:lr-tb;direction:ltr;text-orientation:mixed;dominant-baseline:auto;baseline-shift:baseline;text-anchor:start;white-space:normal;shape-padding:0;shape-margin:0;inline-size:0;clip-rule:nonzero;display:inline;overflow:visible;visibility:visible;opacity:1;isolation:auto;mix-blend-mode:normal;color-interpolation:sRGB;color-interpolation-filters:linearRGB;solid-color:#000000;solid-opacity:1;vector-effect:none;fill:#000000;fill-opacity:1;fill-rule:nonzero;stroke:none;stroke-width:1;stroke-linecap:butt;stroke-linejoin:miter;stroke-miterlimit:4;stroke-dasharray:none;stroke-dashoffset:0;stroke-opacity:1;color-rendering:auto;image-rendering:auto;shape-rendering:auto;text-rendering:auto;enable-background:accumulate;stop-color:#000000;stop-opacity:1"
       d="m 853.93984,1319.5159 c -1.9698,-2.1802 -4.7702,-6.3101 -6.2231,-9.1773 -6.2015,-12.2381 -3.3997,-35.5598 6.184,-51.4752 2.8752,-4.7746 3.7099,-7.4285 4.4867,-14.2647 0.5248,-4.6193 0.7028,-8.6502 0.3955,-8.9575 -0.8129,-0.8129 -9.2018,1.5757 -14.9945,4.2693 -8.1922,3.8094 -12.4641,8.9333 -20.5258,24.6197 -8.1437,15.8458 -14.8982,24.9956 -26.1694,35.4498 -13.7531,12.7562 -26.0457,18.4147 -41.8055,19.2436 -6.9578,0.366 -11.2403,0.055 -16,-1.1622 -7.0201,-1.7951 -19.3867,-7.1382 -20.9885,-9.0683 -1.0605,-1.2778 14.0687,-16.6125 38.1863,-38.7048 17.6405,-16.1592 20.9477,-17.6392 49.4693,-22.139 5.0415,-0.7954 11.5665,-2.5476 14.5,-3.8939 4.902,-2.2497 16.8336,-11.9777 16.8336,-13.7248 0,-0.4117 -5.768,-1.0051 -12.8177,-1.3187 -15.4824,-0.6885 -22.9801,-2.651 -28.2221,-7.3868 -7.1227,-6.4349 -7.496,-19.7167 -0.7286,-25.9186 6.3664,-5.8343 15.4366,-5.495 43.8599,1.6407 11.0622,2.7772 19.567,4.2946 26.1024,4.6571 11.1917,0.6208 13.6814,-0.098 24.4415,-7.0546 6.8205,-4.4097 13.5312,-7.6697 15.7877,-7.6697 1.2551,0 9.9562,13.9684 11.0568,17.75 0.9225,3.1697 -0.1302,5.7696 -2.8351,7.002 -1.9169,0.8734 -2.8687,0.6236 -5.5157,-1.4481 -4.5417,-3.5544 -9.634,-3.9645 -17.3488,-1.3972 -11.065,3.6822 -15.7803,10.924 -15.7803,24.2352 0,4.1554 1.6443,14.9223 4.1423,27.1243 6.1343,29.9634 5.7926,42.447 -1.4196,51.8527 -3.5783,4.6666 -13.7375,10.8505 -17.8564,10.8692 -1.8086,0.01 -3.7555,-1.2299 -6.2149,-3.9522 z"
       id="path899" />
  </g>
</svg>
